<?xml version="1.0" encoding="utf-8"?>
<!-- Generator: Adobe Illustrator 18.0.0, SVG Export Plug-In . SVG Version: 6.00 Build 0)  -->
<!DOCTYPE svg PUBLIC "-//W3C//DTD SVG 1.1//EN" "http://www.w3.org/Graphics/SVG/1.1/DTD/svg11.dtd">
<svg version="1.1" id="Слой_1" xmlns="http://www.w3.org/2000/svg" xmlns:xlink="http://www.w3.org/1999/xlink" x="0px" y="0px"
	 viewBox="0 0 218.3 93.5" enable-background="new 0 0 218.3 93.5" xml:space="preserve">
<g>
	<polygon fill="#FEFEFE" points="94.2,20.3 94.2,17.9 103.6,17.9 103.6,20.3 100.1,20.3 100.1,31.2 97.7,31.2 97.7,20.3 94.2,20.3 
		94.2,20.3 	"/>
	<path fill="#FEFEFE" d="M109.4,23.4h3.8c0,0,0.1-0.1,0.2-0.1c0.1-0.1,0.2-0.2,0.3-0.3c0.1-0.1,0.2-0.3,0.3-0.5
		c0.1-0.2,0.1-0.4,0.1-0.7c0-0.3,0-0.5-0.1-0.7c-0.1-0.2-0.2-0.3-0.3-0.5c-0.1-0.1-0.2-0.2-0.3-0.3c-0.1-0.1-0.2-0.1-0.2-0.1h-3.8
		V23.4L109.4,23.4z M107,31.2V17.9h6.3c0.3,0,0.6,0.1,0.9,0.2c0.4,0.2,0.7,0.4,1,0.7c0.3,0.3,0.6,0.7,0.8,1.2
		c0.2,0.5,0.3,1.1,0.3,1.7c0,0.6-0.1,1.1-0.3,1.5c-0.2,0.4-0.4,0.8-0.7,1.1c-0.3,0.3-0.6,0.6-0.9,0.8c-0.3,0.2-0.6,0.3-0.9,0.4
		l2.3,3.2v2.4h-2.4v-1.6l-2.8-3.9h-1.5v5.5H107L107,31.2L107,31.2z"/>
	<path fill="#FEFEFE" d="M123.1,25.7h3.3l-1.7-5.2L123.1,25.7L123.1,25.7L123.1,25.7z M119.7,31.2v-2.6l3.4-10.8h3.3l3.5,10.8v2.6
		h-2.4V29l-0.3-1h-4.8l-0.3,1v2.2H119.7L119.7,31.2L119.7,31.2z"/>
	<polygon fill="#FEFEFE" points="133.8,31.2 133.8,17.9 142.4,17.9 142.4,20.3 136.1,20.3 136.1,23.4 141.6,23.4 141.6,25.7 
		136.1,25.7 136.1,31.2 133.8,31.2 133.8,31.2 	"/>
	<polygon fill="#FEFEFE" points="146.1,31.2 146.1,17.9 154.7,17.9 154.7,20.3 148.4,20.3 148.4,23.4 153.9,23.4 153.9,25.7 
		148.4,25.7 148.4,31.2 146.1,31.2 146.1,31.2 	"/>
	<polygon fill="#FEFEFE" points="158.4,31.2 158.4,17.9 160.7,17.9 160.7,31.2 158.4,31.2 158.4,31.2 	"/>
	<path fill="#FEFEFE" d="M165.1,28.5v-7.8c0-0.3,0.1-0.7,0.4-1c0.3-0.4,0.6-0.7,1.1-1c0.4-0.3,0.9-0.6,1.5-0.8
		c0.6-0.2,1.1-0.3,1.7-0.3c0.6,0,1.2,0.1,1.7,0.3c0.6,0.2,1.1,0.5,1.5,0.8c0.4,0.3,0.8,0.7,1.1,1c0.3,0.4,0.4,0.7,0.4,1v1.2h-2.4
		v-0.9c-0.1-0.1-0.2-0.2-0.3-0.3c-0.2-0.1-0.3-0.2-0.5-0.4c-0.2-0.1-0.4-0.2-0.7-0.3c-0.2-0.1-0.5-0.1-0.8-0.1c-0.3,0-0.5,0-0.8,0.1
		c-0.2,0.1-0.5,0.2-0.7,0.3c-0.2,0.1-0.4,0.2-0.5,0.4c-0.1,0.1-0.3,0.2-0.3,0.3v7.3c0.1,0.1,0.2,0.2,0.3,0.3
		c0.1,0.1,0.3,0.2,0.5,0.4c0.2,0.1,0.4,0.2,0.7,0.3c0.2,0.1,0.5,0.1,0.8,0.1c0.3,0,0.6,0,0.8-0.1c0.2-0.1,0.5-0.2,0.7-0.3
		c0.2-0.1,0.4-0.2,0.5-0.4c0.1-0.1,0.3-0.2,0.4-0.3v-0.9h2.4v1.2c0,0.3-0.1,0.7-0.4,1.1c-0.3,0.4-0.6,0.7-1.1,1
		c-0.4,0.3-0.9,0.6-1.5,0.8c-0.6,0.2-1.1,0.3-1.7,0.3c-0.6,0-1.2-0.1-1.7-0.3c-0.6-0.2-1.1-0.5-1.5-0.8c-0.4-0.3-0.8-0.6-1.1-1
		C165.3,29.2,165.1,28.8,165.1,28.5L165.1,28.5L165.1,28.5z"/>
	<polygon fill="#FEFEFE" points="95.5,50.5 95.5,37.2 97.9,37.2 97.9,50.5 95.5,50.5 95.5,50.5 	"/>
	<polygon fill="#FEFEFE" points="102.6,50.5 102.6,37.2 104.4,37.2 109.6,45.8 109.6,37.2 112,37.2 112,50.5 109.6,50.5 104.9,42.6 
		104.9,50.5 102.6,50.5 102.6,50.5 	"/>
	<path fill="#FEFEFE" d="M116.1,48.2V47h2.4v0.8c0.2,0.1,0.5,0.3,0.9,0.5c0.4,0.2,0.9,0.3,1.4,0.3c0.6,0,1-0.1,1.5-0.3
		c0.4-0.2,0.7-0.3,0.9-0.5V46c-0.2-0.1-0.4-0.2-0.9-0.3c-0.4-0.2-0.8-0.3-1.3-0.5c-0.5-0.2-0.9-0.3-1.4-0.5c-0.4-0.2-0.8-0.3-1-0.4
		c-0.8-0.3-1.4-0.6-1.8-0.8c-0.4-0.3-0.7-0.7-0.7-1.2v-2.7c0-0.4,0.1-0.7,0.4-1.1c0.3-0.3,0.7-0.6,1.1-0.9c0.5-0.3,1-0.5,1.5-0.6
		c0.6-0.1,1.1-0.2,1.6-0.2c0.5,0,1.1,0.1,1.6,0.2c0.6,0.1,1.1,0.4,1.5,0.6c0.5,0.3,0.8,0.5,1.1,0.9c0.3,0.3,0.4,0.7,0.4,1.1v1.2
		h-2.4v-0.8c-0.2-0.1-0.5-0.3-0.9-0.5c-0.4-0.2-0.9-0.3-1.5-0.3c-0.6,0-1,0.1-1.4,0.3c-0.4,0.2-0.7,0.3-0.9,0.5v1.8
		c0.1,0.1,0.4,0.2,0.8,0.3c0.4,0.2,0.9,0.3,1.3,0.5c0.5,0.2,0.9,0.3,1.4,0.5c0.4,0.2,0.8,0.3,1,0.4c0.8,0.3,1.4,0.6,1.8,0.9
		c0.4,0.3,0.7,0.7,0.7,1.2v2.8c0,0.4-0.1,0.7-0.4,1.1c-0.3,0.3-0.7,0.6-1.1,0.9c-0.5,0.2-1,0.4-1.5,0.6c-0.6,0.1-1.1,0.2-1.6,0.2
		c-0.5,0-1.1-0.1-1.6-0.2c-0.6-0.1-1.1-0.3-1.5-0.6c-0.5-0.2-0.8-0.5-1.1-0.9C116.3,48.9,116.1,48.5,116.1,48.2L116.1,48.2
		L116.1,48.2z"/>
	<path fill="#FEFEFE" d="M131.9,42.6h3.8c0,0,0.1-0.1,0.2-0.1c0.1-0.1,0.2-0.2,0.3-0.3c0.1-0.1,0.2-0.3,0.3-0.5
		c0.1-0.2,0.1-0.4,0.1-0.7c0-0.3,0-0.5-0.1-0.7c-0.1-0.2-0.2-0.3-0.3-0.5c-0.1-0.1-0.2-0.2-0.3-0.3c-0.1-0.1-0.2-0.1-0.2-0.1h-3.8
		V42.6L131.9,42.6z M129.6,50.5V37.2h6.3c0.3,0,0.6,0.1,0.9,0.2c0.4,0.2,0.7,0.4,1,0.7c0.3,0.3,0.6,0.7,0.8,1.2
		c0.2,0.5,0.3,1.1,0.3,1.7c0,0.7-0.1,1.2-0.3,1.7c-0.2,0.5-0.5,0.9-0.8,1.2c-0.3,0.3-0.7,0.6-1,0.7c-0.4,0.2-0.7,0.2-0.9,0.2h-3.9
		v5.5H129.6L129.6,50.5L129.6,50.5z"/>
	<polygon fill="#FEFEFE" points="142.6,50.5 142.6,37.2 151.2,37.2 151.2,39.5 145,39.5 145,42.6 150.5,42.6 150.5,45 145,45 
		145,48.1 151.2,48.1 151.2,50.5 142.6,50.5 142.6,50.5 	"/>
	<path fill="#FEFEFE" d="M155.5,47.7v-7.8c0-0.3,0.1-0.7,0.4-1c0.3-0.4,0.6-0.7,1.1-1c0.4-0.3,0.9-0.6,1.5-0.8
		c0.6-0.2,1.1-0.3,1.7-0.3c0.6,0,1.2,0.1,1.7,0.3c0.6,0.2,1.1,0.5,1.5,0.8c0.4,0.3,0.8,0.7,1.1,1c0.3,0.4,0.4,0.7,0.4,1v1.2h-2.4
		v-0.9c-0.1-0.1-0.2-0.2-0.3-0.3c-0.2-0.1-0.3-0.2-0.5-0.4c-0.2-0.1-0.4-0.2-0.7-0.3c-0.2-0.1-0.5-0.1-0.8-0.1c-0.3,0-0.5,0-0.8,0.1
		c-0.2,0.1-0.5,0.2-0.7,0.3c-0.2,0.1-0.4,0.2-0.5,0.4c-0.1,0.1-0.3,0.2-0.3,0.3v7.3c0.1,0.1,0.2,0.2,0.3,0.3
		c0.1,0.1,0.3,0.2,0.5,0.4c0.2,0.1,0.4,0.2,0.7,0.3c0.2,0.1,0.5,0.1,0.8,0.1c0.3,0,0.6,0,0.8-0.1c0.2-0.1,0.5-0.2,0.7-0.3
		c0.2-0.1,0.4-0.2,0.5-0.3c0.1-0.1,0.3-0.2,0.4-0.3v-0.9h2.4v1.2c0,0.3-0.1,0.7-0.4,1.1c-0.3,0.4-0.6,0.7-1.1,1
		c-0.4,0.3-0.9,0.6-1.5,0.8c-0.6,0.2-1.1,0.3-1.7,0.3c-0.6,0-1.2-0.1-1.7-0.3c-0.6-0.2-1.1-0.5-1.5-0.8c-0.4-0.3-0.8-0.6-1.1-1
		C155.7,48.4,155.5,48.1,155.5,47.7L155.5,47.7L155.5,47.7z"/>
	<polygon fill="#FEFEFE" points="168.1,39.5 168.1,37.2 177.5,37.2 177.5,39.5 174,39.5 174,50.5 171.6,50.5 171.6,39.5 168.1,39.5 
		168.1,39.5 	"/>
	<path fill="#FEFEFE" d="M183,47.5c0.1,0.1,0.2,0.2,0.3,0.3c0.1,0.1,0.3,0.2,0.5,0.4c0.2,0.1,0.4,0.2,0.7,0.3
		c0.2,0.1,0.5,0.1,0.8,0.1c0.3,0,0.5,0,0.8-0.1c0.2-0.1,0.5-0.2,0.7-0.3c0.2-0.1,0.4-0.2,0.5-0.4c0.1-0.1,0.3-0.2,0.3-0.3v-7.3
		c-0.1-0.1-0.2-0.2-0.3-0.3c-0.1-0.1-0.3-0.2-0.5-0.4c-0.2-0.1-0.4-0.2-0.7-0.3c-0.2-0.1-0.5-0.1-0.8-0.1c-0.3,0-0.5,0-0.8,0.1
		c-0.2,0.1-0.5,0.2-0.7,0.3c-0.2,0.1-0.4,0.2-0.5,0.4c-0.1,0.1-0.3,0.2-0.3,0.3V47.5L183,47.5z M180.6,47.7v-7.8
		c0-0.3,0.1-0.7,0.4-1c0.3-0.4,0.6-0.7,1.1-1c0.4-0.3,0.9-0.6,1.5-0.8c0.6-0.2,1.1-0.3,1.7-0.3c0.6,0,1.2,0.1,1.7,0.3
		c0.6,0.2,1.1,0.5,1.5,0.8c0.4,0.3,0.8,0.7,1.1,1c0.3,0.4,0.4,0.7,0.4,1v7.8c0,0.3-0.1,0.7-0.4,1.1c-0.3,0.4-0.6,0.7-1.1,1
		c-0.4,0.3-0.9,0.6-1.5,0.8c-0.6,0.2-1.1,0.3-1.7,0.3c-0.6,0-1.2-0.1-1.7-0.3c-0.6-0.2-1.1-0.5-1.5-0.8c-0.4-0.3-0.8-0.6-1.1-1
		C180.8,48.4,180.6,48.1,180.6,47.7L180.6,47.7L180.6,47.7z"/>
	<path fill="#FEFEFE" d="M196.8,42.6h3.8c0,0,0.1-0.1,0.2-0.1c0.1-0.1,0.2-0.2,0.3-0.3c0.1-0.1,0.2-0.3,0.3-0.5
		c0.1-0.2,0.1-0.4,0.1-0.7c0-0.3,0-0.5-0.1-0.7c-0.1-0.2-0.2-0.3-0.3-0.5c-0.1-0.1-0.2-0.2-0.3-0.3c-0.1-0.1-0.2-0.1-0.2-0.1h-3.8
		V42.6L196.8,42.6z M194.4,50.5V37.2h6.3c0.3,0,0.6,0.1,0.9,0.2c0.4,0.2,0.7,0.4,1,0.7c0.3,0.3,0.6,0.7,0.8,1.2
		c0.2,0.5,0.3,1.1,0.3,1.7c0,0.6-0.1,1.1-0.3,1.5c-0.2,0.4-0.4,0.8-0.7,1.1c-0.3,0.3-0.6,0.6-0.9,0.8c-0.3,0.2-0.6,0.3-0.9,0.4
		l2.3,3.2v2.4h-2.4v-1.6l-2.8-3.9h-1.5v5.5H194.4L194.4,50.5L194.4,50.5z"/>
	<polygon fill="#FEFEFE" points="95.5,69.8 95.5,56.5 97.4,56.5 102.6,65.1 102.6,56.5 104.9,56.5 104.9,69.8 102.6,69.8 97.9,61.9 
		97.9,69.8 95.5,69.8 95.5,69.8 	"/>
	<polygon fill="#FEFEFE" points="109.7,69.8 109.7,56.5 118.3,56.5 118.3,58.8 112,58.8 112,61.9 117.5,61.9 117.5,64.3 112,64.3 
		112,67.4 118.3,67.4 118.3,69.8 109.7,69.8 109.7,69.8 	"/>
	<polygon fill="#FEFEFE" points="122.4,69.8 122.4,67 125.6,63.1 122.4,59.2 122.4,56.5 124.8,56.5 124.8,58.4 127.1,61.2 
		129.5,58.4 129.5,56.5 131.8,56.5 131.8,59.2 128.7,63.1 131.8,67 131.8,69.8 129.5,69.8 129.5,67.8 127.1,65 124.8,67.8 
		124.8,69.8 122.4,69.8 122.4,69.8 	"/>
	<polygon fill="#FEFEFE" points="134.9,58.8 134.9,56.5 144.3,56.5 144.3,58.8 140.8,58.8 140.8,69.8 138.4,69.8 138.4,58.8 
		134.9,58.8 134.9,58.8 	"/>
	<path fill="#FEFEFE" d="M95.3,86.3v-7.8c0-0.3,0.1-0.7,0.4-1c0.3-0.4,0.6-0.7,1.1-1c0.4-0.3,0.9-0.6,1.5-0.8
		c0.6-0.2,1.1-0.3,1.7-0.3c0.6,0,1.2,0.1,1.7,0.3c0.6,0.2,1.1,0.5,1.5,0.8c0.4,0.3,0.8,0.7,1.1,1c0.3,0.4,0.4,0.7,0.4,1v1.2h-2.4
		v-0.9c-0.1-0.1-0.2-0.2-0.3-0.3c-0.1-0.1-0.3-0.2-0.5-0.4c-0.2-0.1-0.4-0.2-0.7-0.3c-0.2-0.1-0.5-0.1-0.8-0.1c-0.3,0-0.5,0-0.8,0.1
		c-0.2,0.1-0.5,0.2-0.7,0.3c-0.2,0.1-0.4,0.2-0.5,0.4c-0.1,0.1-0.3,0.2-0.3,0.3V86c0.1,0.1,0.2,0.2,0.3,0.3c0.1,0.1,0.3,0.2,0.5,0.4
		c0.2,0.1,0.4,0.2,0.7,0.3c0.2,0.1,0.5,0.1,0.8,0.1c0.3,0,0.5,0,0.8-0.1c0.2-0.1,0.5-0.2,0.7-0.3c0.2-0.1,0.4-0.2,0.5-0.4
		c0.1-0.1,0.3-0.2,0.3-0.3V84h-1.9v-2.4h4.3v4.7c0,0.3-0.1,0.7-0.4,1.1c-0.3,0.4-0.6,0.7-1.1,1c-0.4,0.3-0.9,0.6-1.5,0.8
		c-0.6,0.2-1.1,0.3-1.7,0.3c-0.6,0-1.2-0.1-1.7-0.3c-0.6-0.2-1.1-0.5-1.5-0.8c-0.4-0.3-0.8-0.6-1.1-1C95.4,87,95.3,86.6,95.3,86.3
		L95.3,86.3L95.3,86.3z"/>
	<polygon fill="#FEFEFE" points="109.1,89.1 109.1,75.7 117.7,75.7 117.7,78.1 111.5,78.1 111.5,81.2 116.9,81.2 116.9,83.6 
		111.5,83.6 111.5,86.7 117.7,86.7 117.7,89.1 109.1,89.1 109.1,89.1 	"/>
	<polygon fill="#FEFEFE" points="122.3,89.1 122.3,75.7 124.2,75.7 129.4,84.4 129.4,75.7 131.8,75.7 131.8,89 129.4,89 124.7,81.2 
		124.7,89.1 122.3,89.1 122.3,89.1 	"/>
	<polygon fill="#FEFEFE" points="136.5,89.1 136.5,75.7 145.1,75.7 145.1,78.1 138.9,78.1 138.9,81.2 144.3,81.2 144.3,83.6 
		138.9,83.6 138.9,86.7 145.1,86.7 145.1,89.1 136.5,89.1 136.5,89.1 	"/>
	<path fill="#FEFEFE" d="M152.1,81.2h3.8c0,0,0.1-0.1,0.2-0.1c0.1-0.1,0.2-0.2,0.3-0.3c0.1-0.1,0.2-0.3,0.3-0.5
		c0.1-0.2,0.1-0.4,0.1-0.7c0-0.3,0-0.5-0.1-0.7c-0.1-0.2-0.2-0.3-0.3-0.5c-0.1-0.1-0.2-0.2-0.3-0.3c-0.1-0.1-0.2-0.1-0.2-0.1h-3.8
		V81.2L152.1,81.2z M149.7,89.1V75.7h6.3c0.3,0,0.6,0.1,0.9,0.2c0.4,0.2,0.7,0.4,1,0.7c0.3,0.3,0.6,0.7,0.8,1.2
		c0.2,0.5,0.3,1.1,0.3,1.7c0,0.6-0.1,1.1-0.3,1.5c-0.2,0.4-0.4,0.8-0.7,1.1c-0.3,0.3-0.6,0.6-0.9,0.8c-0.3,0.2-0.6,0.3-0.9,0.4
		l2.3,3.2v2.4h-2.4v-1.6l-2.8-3.9h-1.5v5.5H149.7L149.7,89.1L149.7,89.1z"/>
	<path fill="#FEFEFE" d="M165.9,83.6h3.3l-1.7-5.2L165.9,83.6L165.9,83.6L165.9,83.6z M162.4,89.1v-2.6l3.4-10.8h3.3l3.5,10.8v2.6
		h-2.4v-2.2l-0.3-1h-4.8l-0.3,1v2.2H162.4L162.4,89.1L162.4,89.1z"/>
	<polygon fill="#FEFEFE" points="175.2,78.1 175.2,75.7 184.6,75.7 184.6,78.1 181.1,78.1 181.1,89.1 178.7,89.1 178.7,78.1 
		175.2,78.1 175.2,78.1 	"/>
	<polygon fill="#FEFEFE" points="188,89.1 188,75.7 190.3,75.7 190.3,89.1 188,89.1 188,89.1 	"/>
	<path fill="#FEFEFE" d="M197.2,86c0.1,0.1,0.2,0.2,0.3,0.3c0.1,0.1,0.3,0.2,0.5,0.4c0.2,0.1,0.4,0.2,0.7,0.3
		c0.2,0.1,0.5,0.1,0.8,0.1c0.3,0,0.5,0,0.8-0.1c0.2-0.1,0.5-0.2,0.7-0.3c0.2-0.1,0.4-0.2,0.5-0.4c0.1-0.1,0.3-0.2,0.3-0.3v-7.3
		c-0.1-0.1-0.2-0.2-0.3-0.3c-0.1-0.1-0.3-0.2-0.5-0.4c-0.2-0.1-0.4-0.2-0.7-0.3c-0.2-0.1-0.5-0.1-0.8-0.1c-0.3,0-0.5,0-0.8,0.1
		c-0.2,0.1-0.5,0.2-0.7,0.3c-0.2,0.1-0.4,0.2-0.5,0.4c-0.1,0.1-0.3,0.2-0.3,0.3V86L197.2,86z M194.8,86.3v-7.8c0-0.3,0.1-0.7,0.4-1
		c0.3-0.4,0.6-0.7,1.1-1c0.4-0.3,0.9-0.6,1.5-0.8c0.6-0.2,1.1-0.3,1.7-0.3c0.6,0,1.2,0.1,1.7,0.3c0.6,0.2,1.1,0.5,1.5,0.8
		c0.4,0.3,0.8,0.7,1.1,1c0.3,0.4,0.4,0.7,0.4,1v7.8c0,0.3-0.1,0.7-0.4,1.1c-0.3,0.4-0.6,0.7-1.1,1c-0.4,0.3-0.9,0.6-1.5,0.8
		c-0.6,0.2-1.1,0.3-1.7,0.3c-0.6,0-1.2-0.1-1.7-0.3c-0.6-0.2-1.1-0.5-1.5-0.8c-0.4-0.3-0.8-0.6-1.1-1
		C194.9,87,194.8,86.6,194.8,86.3L194.8,86.3L194.8,86.3z"/>
	<polygon fill="#FEFEFE" points="208.6,89.1 208.6,75.7 210.5,75.7 215.7,84.4 215.7,75.7 218,75.7 218,89 215.7,89 211,81.2 
		211,89.1 208.6,89.1 208.6,89.1 	"/>
	<path fill="#2DE2B5" d="M63.6,65.2c-1.9,5.3-5.2,9.8-9.5,13.1c-4.3,3.3-9.5,5.4-15.1,5.9l-0.4-4.4c4.7-0.4,9.1-2.2,12.8-5
		c3.6-2.8,6.4-6.6,8-11.1L63.6,65.2L63.6,65.2L63.6,65.2z"/>
	<path fill="#2DE2B5" d="M0.3,45.8c1.2-4.3,3.1-8.3,5.6-11.9c2.5-3.6,5.7-6.7,9.3-9.2l2.5,3.6c-3.2,2.2-6,5-8.2,8.1
		C7.2,39.6,5.5,43.2,4.5,47L0.3,45.8L0.3,45.8L0.3,45.8z"/>
	<path fill="#2DE2B5" d="M29.4,9.8c1.2-0.2,2.4-0.3,3.6-0.4c1.2-0.1,2.4-0.1,3.6-0.1c4.8,0,9.6,0.8,14.2,2.2
		c4.6,1.5,8.9,3.7,12.9,6.5L61,21.5c-3.6-2.6-7.5-4.5-11.6-5.9c-4.1-1.3-8.5-2-12.9-2c-1.1,0-2.2,0-3.2,0.1
		c-1.1,0.1-2.2,0.2-3.2,0.4L29.4,9.8L29.4,9.8L29.4,9.8z"/>
	<polygon fill="#2DE2B5" points="41.4,59.1 41.4,47.6 45.8,47.6 45.8,59.1 41.4,59.1 41.4,59.1 	"/>
	<path fill="#2DE2B5" d="M55.8,60.4l-0.1,0.2c-0.5,1.9-1.8,3.5-3.4,4.4c-1.6,0.9-3.6,1.3-5.5,0.7c-1.6-0.4-3-1.4-3.9-2.6
		c-1-1.2-1.5-2.8-1.5-4.4h4.4c0,0.7,0.2,1.3,0.6,1.8c0.4,0.5,0.9,0.9,1.5,1c0.8,0.2,1.6,0.1,2.2-0.3c0.6-0.4,1.1-1,1.3-1.7l0-0.1
		L55.8,60.4L55.8,60.4L55.8,60.4z"/>
	<path fill="#2DE2B5" d="M42.5,0.7c2,0.2,4,0.6,6.1,1c2,0.5,4,1,5.9,1.7L53,7.5c-1.8-0.6-3.6-1.1-5.4-1.5c-1.8-0.4-3.7-0.7-5.6-0.9
		L42.5,0.7L42.5,0.7L42.5,0.7z"/>
	<path fill="#2DE2B5" d="M17.2,3.9c3.1-1.2,6.3-2,9.5-2.6c3.3-0.6,6.6-0.9,9.8-0.9c0.2,0,0.1,0,0.7,0l0.7,0l-0.1,4.4l-0.6,0
		c-0.2,0,0,0-0.6,0c-3.1,0-6.1,0.3-9.1,0.8c-3,0.5-5.9,1.3-8.8,2.4L17.2,3.9L17.2,3.9L17.2,3.9z"/>
	<path fill="#2DE2B5" d="M9,18.2c2.4-1.7,4.9-3.3,7.5-4.5c2.6-1.2,5.4-2.3,8.3-3l1.1,4.3c-2.6,0.7-5.1,1.6-7.5,2.7
		c-2.4,1.1-4.7,2.5-6.8,4.1L9,18.2L9,18.2L9,18.2z"/>
	<path fill="#2DE2B5" d="M19.2,22.3c2.7-1.4,5.5-2.5,8.4-3.2c2.9-0.7,5.9-1.1,8.9-1.1c2.6,0,5.1,0.3,7.6,0.8
		c2.5,0.5,4.9,1.3,7.3,2.3l-1.7,4c-2.1-0.9-4.2-1.6-6.5-2c-2.2-0.5-4.4-0.7-6.7-0.7c-2.7,0-5.3,0.3-7.9,0.9
		c-2.6,0.6-5.1,1.6-7.4,2.8L19.2,22.3L19.2,22.3L19.2,22.3z"/>
	<path fill="#2DE2B5" d="M55.6,23.2c4.2,2.5,7.9,5.8,10.8,9.6c2.9,3.8,5.1,8.2,6.4,13L68.5,47c-1.1-4.2-3.1-8.1-5.6-11.4
		c-2.6-3.4-5.8-6.3-9.5-8.5L55.6,23.2L55.6,23.2L55.6,23.2z"/>
	<path fill="#2DE2B5" d="M12.9,84.8c-3.1-2.5-5.7-5.4-7.8-8.7c-2.1-3.3-3.8-6.9-4.8-10.7l4.3-1.1c0.9,3.4,2.3,6.6,4.2,9.5
		c1.9,2.9,4.2,5.5,6.9,7.7L12.9,84.8L12.9,84.8L12.9,84.8z"/>
	<path fill="#2DE2B5" d="M56.2,87.6c-3,1.8-6.1,3.2-9.5,4.1c-3.3,0.9-6.8,1.4-10.2,1.4c-3.5,0-7-0.5-10.3-1.4
		c-3.3-1-6.5-2.4-9.5-4.2l2.3-3.7c2.6,1.6,5.4,2.9,8.4,3.7c2.9,0.8,6,1.3,9.1,1.3c3.1,0,6.1-0.4,9-1.2c2.9-0.8,5.7-2.1,8.3-3.7
		L56.2,87.6L56.2,87.6L56.2,87.6z"/>
	<path fill="#2DE2B5" d="M8.7,62.7c-0.3-1.2-0.5-2.3-0.7-3.5c-0.1-1.2-0.2-2.4-0.2-3.6c0-2.6,0.4-5.2,1.1-7.8
		c0.7-2.5,1.8-4.9,3.1-7.2l3.8,2.3c-1.2,1.9-2.1,4-2.7,6.1c-0.6,2.1-0.9,4.3-0.9,6.6c0,1,0.1,2,0.2,3c0.1,1,0.3,2,0.6,3L8.7,62.7
		L8.7,62.7L8.7,62.7z"/>
	<path fill="#2DE2B5" d="M14.8,36.8c2.7-3.1,5.9-5.5,9.6-7.2C28,27.9,31.9,27,36,26.9l0.1,4.4c-3.5,0.1-6.8,0.9-9.9,2.3
		c-3.1,1.4-5.8,3.5-8.1,6.1L14.8,36.8L14.8,36.8L14.8,36.8z"/>
	<path fill="#2DE2B5" d="M40.8,27.2c7,1.1,13.1,4.6,17.5,9.7c4.4,5.1,6.9,11.6,6.9,18.7c0,0.8,0,1.6-0.1,2.5
		c-0.1,0.9-0.2,1.8-0.3,2.5l-4.3-0.8c0.1-0.8,0.2-1.5,0.3-2.1c0.1-0.6,0.1-1.4,0.1-2.2c0-6-2.2-11.6-5.9-15.9
		c-3.7-4.3-8.8-7.3-14.8-8.2L40.8,27.2L40.8,27.2L40.8,27.2z"/>
	<path fill="#2DE2B5" d="M72.1,67.5c-0.9,2.6-2.1,5.2-3.5,7.6c-1.5,2.4-3.2,4.6-5.1,6.6l-3.2-3.1c1.7-1.8,3.2-3.7,4.5-5.8
		c1.3-2.1,2.3-4.3,3.1-6.7L72.1,67.5L72.1,67.5L72.1,67.5z"/>
	<path fill="#2DE2B5" d="M37.6,65.4c-0.2,0-0.5,0.1-0.9,0.1c-0.4,0-0.6,0-0.9,0c-2.8,0-5.2-1.1-7-2.9c-1.8-1.8-2.9-4.3-2.9-7
		c0-2.7,1.1-5.2,2.9-7l0,0c1.8-1.8,4.3-2.9,7-2.9c2.8,0,5.2,1.1,7,2.9c1.8,1.8,2.9,4.3,2.9,7h-4.4c0-1.5-0.6-2.9-1.6-3.9
		c-1-1-2.4-1.6-3.9-1.6c-1.5,0-2.9,0.6-3.9,1.6c-1,1-1.6,2.4-1.6,3.9c0,1.5,0.6,2.9,1.6,3.9c1,1,2.4,1.6,3.9,1.6c0.2,0,0.4,0,0.5,0
		c0.1,0,0.3,0,0.5-0.1L37.6,65.4L37.6,65.4L37.6,65.4z"/>
	<polygon fill="#2DE2B5" points="41.4,59.1 41.4,47.6 45.8,47.6 45.8,59.1 41.4,59.1 41.4,59.1 	"/>
	<path fill="#2DE2B5" d="M43,74.4c-1,0.3-2.1,0.6-3.2,0.8c-1.1,0.2-2.2,0.3-3.3,0.3c-5.5,0-10.5-2.2-14.1-5.8
		c-3.6-3.6-5.8-8.6-5.8-14.1c0-5.5,2.2-10.5,5.8-14.1c3.6-3.6,8.6-5.8,14.1-5.8c5.5,0,10.5,2.2,14.1,5.8c3.6,3.6,5.8,8.6,5.8,14.1
		c0,0.8-0.1,1.6-0.2,2.4c-0.1,0.8-0.3,1.6-0.5,2.4l-4.3-1.1c0.2-0.6,0.3-1.2,0.3-1.9c0.1-0.6,0.1-1.3,0.1-1.9
		c0-4.3-1.7-8.1-4.5-10.9c-2.8-2.8-6.7-4.5-10.9-4.5c-4.3,0-8.1,1.7-10.9,4.5c-2.8,2.8-4.5,6.7-4.5,10.9c0,4.3,1.7,8.1,4.5,10.9
		c2.8,2.8,6.7,4.5,10.9,4.5c0.9,0,1.7-0.1,2.5-0.2h0c0.8-0.1,1.7-0.3,2.5-0.6L43,74.4L43,74.4L43,74.4z"/>
	<path fill="#2DE2B5" d="M34.2,84.2C29,83.8,24,82,19.9,79c-4.1-2.9-7.5-7-9.6-11.8l4-1.8c1.8,4.1,4.6,7.5,8.2,10
		c3.5,2.5,7.7,4,12.1,4.4L34.2,84.2L34.2,84.2L34.2,84.2z"/>
</g>
</svg>
